<svg xmlns="http://www.w3.org/2000/svg" version="1.1" xmlns:xlink="http://www.w3.org/1999/xlink" xmlns:svgjs="http://svgjs.dev/svgjs" width="1000" height="1000" viewBox="0 0 1000 1000"><rect width="1000" height="1000" fill="#000000"></rect><g transform="matrix(0.7,0,0,0.7,149.57575757575756,282.1265587044535)"><svg viewBox="0 0 396 247" data-background-color="#ffffff" preserveAspectRatio="xMidYMid meet" height="623" width="1000" xmlns="http://www.w3.org/2000/svg" xmlns:xlink="http://www.w3.org/1999/xlink"><g id="tight-bounds" transform="matrix(1,0,0,1,0.2400000000000091,-0.09999999999999432)"><svg viewBox="0 0 395.52 247.2" height="247.2" width="395.52"><g><svg></svg></g><g><svg viewBox="0 0 395.52 247.2" height="247.2" width="395.52"><g transform="matrix(1,0,0,1,134.48521531914892,47.215199999999996)"><svg viewBox="0 0 126.54956936170214 152.7696" height="152.7696" width="126.54956936170214"><g><svg viewBox="0 0 126.54956936170214 152.7696" height="152.7696" width="126.54956936170214"><g><svg viewBox="0 0 126.54956936170214 152.7696" height="152.7696" width="126.54956936170214"><g><svg viewBox="0 0 126.54956936170214 152.7696" height="152.7696" width="126.54956936170214"><g id="textblocktransform"><svg viewBox="0 0 126.54956936170214 152.7696" height="152.7696" width="126.54956936170214" id="textblock"><g><svg viewBox="0 0 126.54956936170214 152.7696" height="152.7696" width="126.54956936170214"><g transform="matrix(1,0,0,1,0,0)"><svg width="126.54956936170214" viewBox="4.349999904632568 -35.25 29.19999885559082 35.25" height="152.7696" data-palette-color="#8d021f"><path d="M29.5-19.65L29.5-35.25 33.55-35.25 33.55 0 29.5 0 29.5-16.15 8.4-16.15 8.4 0 4.35 0 4.35-35.25 8.4-35.25 8.4-19.65 29.5-19.65Z" opacity="1" transform="matrix(1,0,0,1,0,0)" fill="#ffffff" class="wordmark-text-0" data-fill-palette-color="primary" id="text-0"></path></svg></g></svg></g></svg></g></svg></g></svg></g></svg></g></svg></g><path d="M78.733 41.215L78.733 0 325.933 0 325.933 247.2 78.733 247.2 78.733 205.985 92.51 205.985 92.51 233.423 312.157 233.423 312.157 13.777 92.51 13.777 92.51 41.215Z" fill="#ffffff" stroke="transparent" data-fill-palette-color="primary"></path></svg></g><defs></defs></svg><rect width="395.52" height="247.2" fill="none" stroke="none" visibility="hidden"></rect></g></svg></g></svg>