<!DOCTYPE svg PUBLIC "-//W3C//DTD SVG 1.1//EN" "http://www.w3.org/Graphics/SVG/1.1/DTD/svg11.dtd">
<!-- Uploaded to: SVG Repo, www.svgrepo.com, Transformed by: SVG Repo Mixer Tools -->
<svg width="800px" height="800px" viewBox="0 0 24 24" version="1.1" xmlns="http://www.w3.org/2000/svg" xmlns:xlink="http://www.w3.org/1999/xlink" fill="#000000">
<g id="SVGRepo_bgCarrier" stroke-width="0"/>
<g id="SVGRepo_tracerCarrier" stroke-linecap="round" stroke-linejoin="round"/>
<g id="SVGRepo_iconCarrier"> <title>app-menu</title> <desc>Created with sketchtool.</desc> <g id="web-app" stroke="none" stroke-width="1" fill="none" fill-rule="evenodd"> <g id="app-menu" fill="#ffffff"> <path d="M16,16 L20,16 L20,20 L16,20 L16,16 Z M10,16 L14,16 L14,20 L10,20 L10,16 Z M4,16 L8,16 L8,20 L4,20 L4,16 Z M16,10 L20,10 L20,14 L16,14 L16,10 Z M10,10 L14,10 L14,14 L10,14 L10,10 Z M4,10 L8,10 L8,14 L4,14 L4,10 Z M16,4 L20,4 L20,8 L16,8 L16,4 Z M10,4 L14,4 L14,8 L10,8 L10,4 Z M4,4 L8,4 L8,8 L4,8 L4,4 Z" id="Shape"> </path> </g> </g> </g>
</svg>